<svg xmlns="http://www.w3.org/2000/svg" xmlns:xlink="http://www.w3.org/1999/xlink" width="500" zoomAndPan="magnify" viewBox="0 0 375 374.999991" height="500" preserveAspectRatio="xMidYMid meet" version="1.0"><defs><g/></defs><path stroke-linecap="butt" transform="matrix(4.348827, 0, 0, 4.348827, -12.575935, -17.286096)" fill="none" stroke-linejoin="miter" d="M 46.72815 35.20996 L 45.269423 35.20996 L 42.540598 21.898181 C 42.317837 21.05115 42.207355 20.286755 42.207355 19.606795 C 42.207355 18.578321 42.589103 17.669311 43.352599 16.877072 C 44.116993 16.071359 45.012529 15.668952 46.040105 15.668952 C 47.012889 15.668952 47.88058 16.071359 48.644076 16.877072 C 49.40847 17.669311 49.790218 18.578321 49.790218 19.606795 C 49.790218 19.884348 49.678837 20.647844 49.456974 21.898181 Z M 45.269423 57.646863 L 46.72815 57.646863 L 49.456974 70.958641 C 49.678837 71.820045 49.790218 72.590726 49.790218 73.270687 C 49.790218 74.298263 49.40847 75.208171 48.644076 76.00041 C 47.88058 76.791751 47.012889 77.187871 46.040105 77.187871 C 45.012529 77.187871 44.116993 76.791751 43.352599 76.00041 C 42.589103 75.208171 42.207355 74.298263 42.207355 73.270687 C 42.207355 72.97966 42.317837 72.20808 42.540598 70.958641 Z M 54.394548 39.04271 L 53.37326 38.02232 L 60.894145 26.585149 C 62.199274 24.599161 63.62297 23.606616 65.164334 23.606616 C 66.178436 23.606616 67.039839 23.960519 67.747645 24.668325 C 68.469823 25.377029 68.830911 26.244719 68.830911 27.272295 C 68.830911 28.814557 67.831181 30.238253 65.830821 31.543382 Z M 37.603024 53.813215 L 38.624313 54.834503 L 31.103427 66.270776 C 29.798298 68.257662 28.374603 69.250207 26.832341 69.250207 C 25.819136 69.250207 24.950547 68.896304 24.22837 68.1876 C 23.520564 67.479794 23.166661 66.611205 23.166661 65.583629 C 23.166661 64.055739 24.166392 62.632043 26.165854 61.313441 Z M 57.227568 47.168104 L 57.227568 45.709378 L 70.539346 42.980553 C 71.386378 42.744318 72.150772 42.62665 72.830732 42.62665 C 73.858308 42.62665 74.768216 43.015584 75.560455 43.792553 C 76.36527 44.556948 76.768576 45.452484 76.768576 46.48006 C 76.768576 47.438472 76.36527 48.307061 75.560455 49.08403 C 74.768216 49.848425 73.858308 50.230173 72.830732 50.230173 C 72.150772 50.230173 71.386378 50.118792 70.539346 49.896929 Z M 34.770005 45.709378 L 34.770005 47.168104 L 21.458227 49.896929 C 20.611195 50.118792 19.846801 50.230173 19.16684 50.230173 C 18.138366 50.230173 17.222171 49.848425 16.416458 49.08403 C 15.625117 48.307061 15.228997 47.438472 15.228997 46.48006 C 15.228997 45.452484 15.625117 44.556948 16.416458 43.792553 C 17.222171 43.015584 18.138366 42.62665 19.16684 42.62665 C 19.846801 42.62665 20.611195 42.744318 21.458227 42.980553 Z M 53.37326 54.834503 L 54.394548 53.813215 L 65.830821 61.313441 C 67.831181 62.632043 68.830911 64.055739 68.830911 65.583629 C 68.830911 66.611205 68.469823 67.479794 67.747645 68.1876 C 67.039839 68.896304 66.178436 69.250207 65.164334 69.250207 C 63.62297 69.250207 62.199274 68.257662 60.894145 66.270776 Z M 38.624313 38.02232 L 37.603024 39.04271 L 26.165854 31.543382 C 24.166392 30.238253 23.166661 28.814557 23.166661 27.272295 C 23.166661 26.244719 23.520564 25.377029 24.22837 24.668325 C 24.950547 23.960519 25.819136 23.606616 26.832341 23.606616 C 28.374603 23.606616 29.798298 24.599161 31.103427 26.585149 Z M 46.12364 38.293585 C 48.290173 38.293585 50.16478 39.092112 51.748361 40.689167 C 53.345415 42.271849 54.143942 44.203045 54.143942 46.48006 C 54.143942 48.702282 53.345415 50.611921 51.748361 52.208975 C 50.16478 53.792555 48.262328 54.583897 46.040105 54.583897 C 43.76309 54.583897 41.825607 53.792555 40.227654 52.208975 C 38.644972 50.611921 37.852733 48.702282 37.852733 46.48006 C 37.852733 44.203045 38.644972 42.271849 40.227654 40.689167 C 41.825607 39.092112 43.790037 38.293585 46.12364 38.293585 Z M 46.12364 38.293585 " stroke="#a74b05" stroke-width="13.546661" stroke-opacity="1" stroke-miterlimit="4"/><g fill="#ff7a14" fill-opacity="1"><g transform="translate(40.6972, 313.22478)"><g><path d="M 149.921875 -177.375 L 143.609375 -177.375 L 131.734375 -235.265625 C 130.742188 -238.972656 130.25 -242.3125 130.25 -245.28125 C 130.25 -249.738281 131.914062 -253.695312 135.25 -257.15625 C 138.59375 -260.625 142.492188 -262.359375 146.953125 -262.359375 C 151.148438 -262.359375 154.921875 -260.625 158.265625 -257.15625 C 161.609375 -253.695312 163.28125 -249.738281 163.28125 -245.28125 C 163.28125 -244.039062 162.785156 -240.703125 161.796875 -235.265625 Z M 143.609375 -79.78125 L 149.921875 -79.78125 L 161.796875 -21.890625 C 162.785156 -18.179688 163.28125 -14.84375 163.28125 -11.875 C 163.28125 -7.414062 161.609375 -3.457031 158.265625 0 C 154.921875 3.457031 151.148438 5.1875 146.953125 5.1875 C 142.492188 5.1875 138.59375 3.457031 135.25 0 C 131.914062 -3.457031 130.25 -7.414062 130.25 -11.875 C 130.25 -13.113281 130.742188 -16.453125 131.734375 -21.890625 Z M 183.3125 -160.671875 L 178.859375 -165.125 L 211.515625 -214.859375 C 217.203125 -223.515625 223.382812 -227.84375 230.0625 -227.84375 C 234.519531 -227.84375 238.296875 -226.296875 241.390625 -223.203125 C 244.484375 -220.109375 246.03125 -216.335938 246.03125 -211.890625 C 246.03125 -205.203125 241.695312 -199.015625 233.03125 -193.328125 Z M 110.203125 -96.484375 L 114.65625 -92.03125 L 82.015625 -42.296875 C 76.316406 -33.640625 70.128906 -29.3125 63.453125 -29.3125 C 59.003906 -29.3125 55.234375 -30.859375 52.140625 -33.953125 C 49.046875 -37.046875 47.5 -40.816406 47.5 -45.265625 C 47.5 -51.953125 51.828125 -58.140625 60.484375 -63.828125 Z M 195.5625 -125.421875 L 195.5625 -131.734375 L 253.453125 -143.609375 C 257.160156 -144.597656 260.5 -145.09375 263.46875 -145.09375 C 267.914062 -145.09375 271.867188 -143.421875 275.328125 -140.078125 C 278.796875 -136.742188 280.53125 -132.847656 280.53125 -128.390625 C 280.53125 -124.179688 278.796875 -120.40625 275.328125 -117.0625 C 271.867188 -113.726562 267.914062 -112.0625 263.46875 -112.0625 C 260.5 -112.0625 257.160156 -112.554688 253.453125 -113.546875 Z M 97.96875 -131.734375 L 97.96875 -125.421875 L 40.078125 -113.546875 C 36.367188 -112.554688 33.03125 -112.0625 30.0625 -112.0625 C 25.601562 -112.0625 21.640625 -113.726562 18.171875 -117.0625 C 14.710938 -120.40625 12.984375 -124.179688 12.984375 -128.390625 C 12.984375 -132.847656 14.710938 -136.742188 18.171875 -140.078125 C 21.640625 -143.421875 25.601562 -145.09375 30.0625 -145.09375 C 33.03125 -145.09375 36.367188 -144.597656 40.078125 -143.609375 Z M 178.859375 -92.03125 L 183.3125 -96.484375 L 233.03125 -63.828125 C 241.695312 -58.140625 246.03125 -51.953125 246.03125 -45.265625 C 246.03125 -40.816406 244.484375 -37.046875 241.390625 -33.953125 C 238.296875 -30.859375 234.519531 -29.3125 230.0625 -29.3125 C 223.382812 -29.3125 217.203125 -33.640625 211.515625 -42.296875 Z M 114.65625 -165.125 L 110.203125 -160.671875 L 60.484375 -193.328125 C 51.828125 -199.015625 47.5 -205.203125 47.5 -211.890625 C 47.5 -216.335938 49.046875 -220.109375 52.140625 -223.203125 C 55.234375 -226.296875 59.003906 -227.84375 63.453125 -227.84375 C 70.128906 -227.84375 76.316406 -223.515625 82.015625 -214.859375 Z M 147.3125 -164.015625 C 156.71875 -164.015625 164.882812 -160.550781 171.8125 -153.625 C 178.738281 -146.695312 182.203125 -138.285156 182.203125 -128.390625 C 182.203125 -118.742188 178.738281 -110.457031 171.8125 -103.53125 C 164.882812 -96.601562 156.597656 -93.140625 146.953125 -93.140625 C 137.054688 -93.140625 128.644531 -96.601562 121.71875 -103.53125 C 114.789062 -110.457031 111.328125 -118.742188 111.328125 -128.390625 C 111.328125 -138.285156 114.789062 -146.695312 121.71875 -153.625 C 128.644531 -160.550781 137.175781 -164.015625 147.3125 -164.015625 Z M 147.3125 -164.015625 "/></g></g></g></svg>