<svg xmlns="http://www.w3.org/2000/svg" xmlns:xlink="http://www.w3.org/1999/xlink" width="500" zoomAndPan="magnify" viewBox="0 0 375 374.999991" height="500" preserveAspectRatio="xMidYMid meet" version="1.0"><defs><g/></defs><g fill="#ffffff" fill-opacity="1"><g transform="translate(157.147272, 124.801049)"><g><path d="M 2.375 -18.078125 C 2.375 -20.566406 2.96875 -22.46875 4.15625 -23.78125 C 5.351562 -25.09375 7.070312 -25.75 9.3125 -25.75 C 11.519531 -25.75 13.226562 -25.085938 14.4375 -23.765625 C 15.644531 -22.441406 16.25 -20.546875 16.25 -18.078125 C 16.25 -15.628906 15.640625 -13.734375 14.421875 -12.390625 C 13.203125 -11.054688 11.5 -10.390625 9.3125 -10.390625 C 7.082031 -10.390625 5.367188 -11.054688 4.171875 -12.390625 C 2.972656 -13.734375 2.375 -15.628906 2.375 -18.078125 Z M 2.375 -18.078125 "/></g></g></g><path stroke-linecap="butt" transform="matrix(1.688051, 0, 0, 1.688051, 5.764206, 29.265328)" fill="none" stroke-linejoin="miter" d="M 52.097244 12.523862 C 61.943564 12.523862 69.207394 14.412134 73.888735 18.188678 C 78.581646 21.967535 80.930415 27.329209 80.930415 34.271386 C 80.930415 36.883958 80.458348 39.528927 79.511898 42.208607 C 78.581646 44.876717 77.165442 47.334247 75.263286 49.583512 C 73.361129 51.835091 70.970707 53.633115 68.096646 54.979897 C 65.222585 56.312795 61.881084 56.979244 58.076772 56.979244 C 56.202384 56.979244 54.76304 56.764036 53.763366 56.333621 C 52.763693 55.903206 51.965343 55.493618 51.368316 55.104856 C 50.771288 54.70221 50.104839 54.500887 49.368969 54.500887 C 48.522023 54.500887 47.84169 54.896591 47.325655 55.687999 L 46.888298 56.541887 L 47.138216 55.937917 L 46.888298 56.541887 C 45.23606 60.862234 43.160349 64.770679 40.661166 68.27185 C 38.159668 71.770707 35.313376 74.526751 32.119975 76.542296 C 28.938145 78.569411 25.501767 79.582969 21.806216 79.582969 C 18.50174 79.582969 15.808175 78.895694 13.723209 77.521143 C 11.65444 76.160476 10.15493 74.401792 9.224678 72.249717 C 8.280542 70.083758 7.808475 67.834493 7.808475 65.499608 C 7.808475 63.111499 8.280542 60.841408 9.224678 58.687019 C 10.15493 56.52106 11.473944 54.757747 13.181719 53.397081 C 14.889494 52.02253 16.884213 51.335254 19.161247 51.335254 C 20.008192 51.335254 20.431665 51.675421 20.431665 52.355754 C 20.431665 54.244026 21.125882 55.771305 22.514318 56.937591 C 23.918951 58.103876 25.612842 58.687019 27.598305 58.687019 C 29.930876 58.687019 32.536506 57.534618 35.410567 55.229815 C 38.284628 52.925013 40.716703 49.208635 42.702166 44.085309 C 43.451921 42.15307 44.208618 40.153723 44.972257 38.084954 C 45.735897 36.002301 46.492594 34.049236 47.242349 32.230386 C 47.813921 30.74476 48.563676 29.689549 49.493928 29.064753 C 50.438064 28.439958 51.534928 28.12756 52.784519 28.12756 C 54.60337 28.12756 55.799738 28.54409 56.368996 29.377151 C 56.938255 30.196328 56.993792 31.314019 56.535609 32.730222 C 55.910813 34.606924 55.353125 36.231393 54.867172 37.605944 C 54.38122 38.966611 53.9994 40.188434 53.721713 41.271413 L 53.971632 40.667444 C 53.402373 42.375219 53.36072 43.634067 53.846672 44.43936 C 54.332625 45.230768 55.512795 45.626472 57.389496 45.626472 C 58.986197 45.626472 60.534302 45.189115 62.033812 44.3144 C 63.547207 43.425802 64.799112 42.139185 65.784901 40.459179 C 66.784575 38.779172 67.284411 36.717346 67.284411 34.271386 C 67.284411 30.578148 65.986224 27.933179 63.387536 26.334164 C 60.805047 24.737464 57.153462 23.939113 52.430468 23.939113 C 49.139877 23.939113 46.09689 24.327875 43.306135 25.105399 C 40.51538 25.869038 38.263801 27.079291 36.556026 28.731529 C 34.862135 30.383767 34.015189 32.515015 34.015189 35.127587 C 34.015189 36.266104 34.327587 37.224124 34.952383 38.001648 C 35.577179 38.765288 36.340818 39.147107 37.243301 39.147107 C 37.645947 40.04959 37.673716 41.139512 37.326607 42.416872 C 36.993383 43.696547 36.326934 44.91837 35.327261 46.084655 C 34.327587 47.250941 33.043285 48.23673 31.474353 49.042022 C 29.916991 49.83343 28.118968 50.229134 26.077968 50.229134 C 23.745397 50.229134 21.778447 49.67376 20.181746 48.563012 C 18.585046 47.452264 17.390992 45.987465 16.599584 44.168615 C 15.808175 42.34745 15.412471 40.417525 15.412471 38.376526 C 15.412471 34.8499 16.266359 31.536168 17.974134 28.439958 C 19.68191 25.327549 22.125556 22.578447 25.307386 20.190338 C 28.486903 17.799916 32.342125 15.925528 36.868424 14.564862 C 41.397037 13.204195 46.471767 12.523862 52.097244 12.523862 Z M 92.968149 76.000806 C 89.552598 76.000806 86.745645 75.237167 84.551917 73.707574 C 82.372074 72.166411 80.754547 70.132353 79.699336 67.605401 C 78.641811 65.062251 78.12809 62.271496 78.155859 59.230823 C 78.183628 56.187836 78.711233 53.147162 79.740989 50.104175 C 80.768431 47.063502 82.247115 44.279689 84.17704 41.750423 C 86.106965 39.209587 88.455734 37.175529 91.21872 35.648251 C 93.981707 34.104773 97.101058 33.334192 100.572146 33.334192 C 103.237941 33.334192 105.413157 33.834028 107.093163 34.836016 C 108.77317 35.821805 110.008877 37.140818 110.800285 38.793056 C 111.591693 40.445294 111.989711 42.208607 111.989711 44.085309 C 111.989711 46.140193 111.418139 48.188135 110.279622 50.229134 C 109.154989 52.272448 107.565231 53.966339 105.510347 55.313121 C 103.467033 56.646019 101.051156 57.312468 98.260401 57.312468 C 97.066347 57.312468 95.900061 57.229162 94.75923 57.06255 C 93.620713 56.882053 92.572445 56.507176 91.614425 55.937917 C 91.322853 55.771305 91.003513 55.764363 90.656404 55.917091 C 90.32318 56.055934 90.156568 56.409985 90.156568 56.979244 C 90.156568 58.450985 91.02434 59.577932 92.759884 60.355455 C 94.495428 61.119095 96.587337 61.500914 99.030983 61.500914 C 101.932812 61.500914 104.934146 60.765044 108.030357 59.293302 C 111.126568 57.805363 113.641949 55.583866 115.571874 52.626499 C 116.030058 51.946166 116.627085 51.70319 117.362956 51.897571 C 118.112711 52.091952 118.723622 52.473771 119.19569 53.04303 C 119.681643 53.612288 119.758006 54.181547 119.424782 54.750805 C 115.662123 61.695295 111.543098 66.973663 107.072337 70.583595 C 102.613146 74.193526 97.913292 76.000806 92.968149 76.000806 Z M 96.052789 50.918724 C 97.691143 50.918724 98.975445 50.388804 99.905697 49.333594 C 100.849833 48.278383 101.321901 47.209288 101.321901 46.126308 C 101.321901 45.168288 100.995619 44.349111 100.343054 43.668778 C 99.690489 42.97456 98.711643 42.627452 97.406513 42.627452 C 95.754276 42.627452 94.43989 43.141173 93.467986 44.168615 C 92.509965 45.196057 92.030955 46.279036 92.030955 47.417553 C 92.030955 48.320036 92.357237 49.132271 93.009802 49.854257 C 93.662366 50.562359 94.675924 50.918724 96.052789 50.918724 Z M 122.243306 76.000806 C 119.049905 76.000806 116.694193 75.021959 115.180798 73.061952 C 113.681288 71.090374 112.931533 68.528711 112.931533 65.374649 C 112.931533 62.222901 113.556329 58.828177 114.805921 55.188162 C 115.555676 53.022203 116.381795 50.689632 117.284278 48.188135 C 118.200645 45.675067 119.19569 42.939849 120.264785 39.980168 C 119.015194 39.980168 118.061801 39.653886 117.409237 39.001322 C 116.756672 38.348757 116.326257 37.585118 116.117992 36.710403 C 115.923611 35.821805 115.923611 35.051223 116.117992 34.396345 C 116.326257 33.74378 116.687251 33.417498 117.200972 33.417498 C 119.702469 33.417498 121.660163 32.72328 123.076367 31.334845 C 124.506455 29.932526 125.506128 28.467726 126.075387 26.940448 C 127.105143 24.43895 128.097874 22.863076 129.055894 22.210512 C 130.027799 21.544063 131.055241 21.210838 132.138221 21.210838 C 133.734921 21.210838 134.729966 21.884229 135.118728 23.231012 C 135.521374 24.563909 135.070133 26.56557 133.76269 29.231366 C 133.137894 30.605917 132.790785 31.647243 132.721363 32.355345 C 132.665826 33.063447 133.040703 33.417498 133.845996 33.417498 L 138.28436 33.417498 C 138.853619 33.417498 139.221554 33.820144 139.388166 34.627751 C 139.554779 35.419159 139.540894 36.328584 139.346513 37.356026 C 139.152132 38.369584 138.784197 39.279009 138.242707 40.084301 C 137.701218 40.875709 137.000058 41.271413 136.139228 41.271413 C 133.526656 41.271413 131.596731 41.375546 130.347139 41.583811 C 129.097547 41.778192 128.215891 42.271087 127.70217 43.064809 C 127.188449 43.856217 126.646959 45.223825 126.075387 47.167635 C 125.159019 50.125002 125.283979 52.487656 126.450264 54.250968 C 127.618864 56.000397 129.458541 56.875111 131.971608 56.875111 C 133.679384 56.875111 135.202034 56.493291 136.534932 55.729652 C 137.86783 54.966013 138.957752 53.931628 139.804697 52.626499 C 140.262881 51.946166 140.846023 51.70319 141.554125 51.897571 C 142.276112 52.091952 142.875453 52.473771 143.347521 53.04303 C 143.833473 53.612288 143.937606 54.181547 143.659919 54.750805 C 143.146198 55.72271 142.456608 57.06255 141.595778 58.772639 C 140.748833 60.46653 139.728333 62.313149 138.534279 64.312496 C 137.340225 66.297958 135.944847 68.17466 134.345833 69.937972 C 132.763016 71.701285 130.958051 73.1522 128.930935 74.290717 C 126.917704 75.431548 124.686952 76.000806 122.243306 76.000806 Z M 146.892659 76.000806 C 143.990829 76.000806 141.797102 74.806752 140.309162 72.416329 C 138.83742 70.028221 138.10155 66.93201 138.10155 63.125384 C 138.10155 60.723391 138.400063 58.173298 138.997091 55.479734 C 139.594118 52.772285 140.475774 50.111117 141.644374 47.500859 C 142.810659 44.890601 144.275458 42.514063 146.038771 40.375872 C 147.802084 38.237682 149.85234 36.529907 152.184911 35.252546 C 154.517482 33.972872 157.162451 33.334192 160.122132 33.334192 C 161.829908 33.334192 163.148921 33.493862 164.079173 33.813202 C 165.023309 34.118658 165.740667 34.500477 166.226619 34.960975 C 166.712572 35.419159 167.12216 35.807921 167.455384 36.127261 C 167.802493 36.432716 168.260677 36.585444 168.829935 36.585444 C 169.787956 36.585444 170.565479 36.314699 171.162507 35.77321 C 171.759534 35.23172 172.425983 34.69023 173.161853 34.146426 C 173.913922 33.604937 174.941364 33.334192 176.246493 33.334192 C 177.38501 33.334192 178.169476 33.618821 178.599891 34.188079 C 179.030306 34.759652 179.245514 35.530234 179.245514 36.502138 C 179.245514 38.084954 178.801214 39.660828 177.912616 41.22976 C 177.037902 42.801006 176.114592 44.835064 175.142687 47.334247 C 173.726484 50.458226 173.196564 52.848649 173.557557 54.500887 C 173.934749 56.153125 175.059381 56.979244 176.933769 56.979244 C 178.40551 56.979244 179.682871 56.597424 180.76585 55.833785 C 181.851144 55.056261 182.823048 53.987166 183.683878 52.626499 C 184.128177 51.946166 184.704378 51.70319 185.41248 51.897571 C 186.134466 52.091952 186.731493 52.473771 187.203561 53.04303 C 187.689514 53.612288 187.793646 54.181547 187.515959 54.750805 C 186.488517 56.736267 185.391653 58.946194 184.225368 61.375955 C 183.059082 63.791832 181.760895 66.110519 180.328493 68.33433 C 178.912289 70.541942 177.294762 72.374676 175.475912 73.832533 C 173.657062 75.27882 171.551268 76.000806 169.16316 76.000806 C 166.205793 76.000806 164.113884 74.806752 162.892061 72.416329 C 161.670238 70.028221 161.316187 67.070854 161.829908 63.541914 L 161.496683 63.541914 C 159.788908 67.015316 157.678486 69.958799 155.163105 72.374676 C 152.663921 74.792868 149.907877 76.000806 146.892659 76.000806 Z M 155.43385 58.332968 C 156.905591 58.332968 158.19915 57.909495 159.309898 57.06255 C 160.420646 56.20172 161.288418 55.160393 161.913214 53.938571 C 162.53801 52.716748 162.850408 51.508809 162.850408 50.312441 C 162.850408 48.896237 162.447761 47.792431 161.642469 47.001023 C 160.851061 46.19573 159.775024 45.793084 158.414357 45.793084 C 156.940302 45.793084 155.662941 46.19573 154.579962 47.001023 C 153.496982 47.792431 152.656979 48.799046 152.059952 50.020869 C 151.462925 51.245006 151.164411 52.480714 151.164411 53.730305 C 151.164411 55.146509 151.546231 56.271142 152.30987 57.104203 C 153.087394 57.92338 154.12872 58.332968 155.43385 58.332968 Z M 188.959932 76.000806 C 185.947028 76.000806 183.841234 75.160803 182.64718 73.478482 C 181.453126 71.798476 180.856098 69.708881 180.856098 67.209697 C 180.856098 65.041424 181.126843 62.681084 181.668333 60.126363 C 182.209823 57.569329 182.90404 55.070145 183.750986 52.626499 C 186.65513 44.321343 189.11266 37.356026 191.125891 31.730549 C 193.15532 26.091188 195.106072 21.835634 196.980459 18.961573 C 198.854847 16.085198 200.932872 14.648168 203.209906 14.648168 C 204.973218 14.648168 206.083966 15.314617 206.54215 16.647514 C 207.000334 17.980412 206.569919 19.989015 205.250905 22.668695 C 202.932218 27.391689 200.932872 31.758318 199.250551 35.77321 C 197.570544 39.785787 196.244589 43.585472 195.272684 47.167635 C 194.814501 48.805988 194.488218 50.381862 194.293837 51.897571 C 194.099456 53.397081 194.286895 54.618904 194.856154 55.56304 C 195.425412 56.507176 196.563929 56.979244 198.271704 56.979244 C 199.743446 56.979244 201.037004 56.597424 202.147753 55.833785 C 203.258501 55.056261 204.265116 53.987166 205.167599 52.626499 C 205.625783 51.946166 206.22281 51.70319 206.958681 51.897571 C 207.708436 52.091952 208.319347 52.473771 208.793729 53.04303 C 209.279681 53.612288 209.356045 54.181547 209.022821 54.750805 C 208.453563 55.667172 207.763973 56.993128 206.958681 58.730986 C 206.167273 60.452646 205.216194 62.299265 204.105446 64.270843 C 202.994698 66.228536 201.696511 68.105238 200.208571 69.896319 C 198.73683 71.687401 197.07765 73.1522 195.231031 74.290717 C 193.384412 75.431548 191.292503 76.000806 188.959932 76.000806 Z M 188.959932 76.000806 " stroke="#ffffff" stroke-width="13.546661" stroke-opacity="1" stroke-miterlimit="4"/><g fill="#ff7a14" fill-opacity="1"><g transform="translate(26.152702, 157.557233)"><g><path d="M 67.5625 -107.171875 C 84.175781 -107.171875 96.441406 -103.976562 104.359375 -97.59375 C 112.285156 -91.207031 116.25 -82.15625 116.25 -70.4375 C 116.25 -66.019531 115.457031 -61.550781 113.875 -57.03125 C 112.289062 -52.519531 109.890625 -48.367188 106.671875 -44.578125 C 103.453125 -40.785156 99.414062 -37.757812 94.5625 -35.5 C 89.71875 -33.25 84.078125 -32.125 77.640625 -32.125 C 74.472656 -32.125 72.046875 -32.484375 70.359375 -33.203125 C 68.679688 -33.921875 67.335938 -34.613281 66.328125 -35.28125 C 65.328125 -35.957031 64.203125 -36.296875 62.953125 -36.296875 C 61.503906 -36.296875 60.347656 -35.625 59.484375 -34.28125 L 58.765625 -32.84375 L 59.203125 -33.84375 L 58.765625 -32.84375 C 55.984375 -25.539062 52.476562 -18.9375 48.25 -13.03125 C 44.03125 -7.125 39.226562 -2.46875 33.84375 0.9375 C 28.46875 4.34375 22.660156 6.046875 16.421875 6.046875 C 10.847656 6.046875 6.304688 4.894531 2.796875 2.59375 C -0.703125 0.289062 -3.242188 -2.679688 -4.828125 -6.328125 C -6.410156 -9.984375 -7.203125 -13.78125 -7.203125 -17.71875 C -7.203125 -21.75 -6.410156 -25.585938 -4.828125 -29.234375 C -3.242188 -32.890625 -1.015625 -35.867188 1.859375 -38.171875 C 4.742188 -40.472656 8.109375 -41.625 11.953125 -41.625 C 13.390625 -41.625 14.109375 -41.050781 14.109375 -39.90625 C 14.109375 -36.726562 15.285156 -34.15625 17.640625 -32.1875 C 19.992188 -30.21875 22.851562 -29.234375 26.21875 -29.234375 C 30.15625 -29.234375 34.546875 -31.175781 39.390625 -35.0625 C 44.242188 -38.957031 48.351562 -45.226562 51.71875 -53.875 C 52.957031 -57.132812 54.222656 -60.515625 55.515625 -64.015625 C 56.816406 -67.523438 58.09375 -70.816406 59.34375 -73.890625 C 60.300781 -76.390625 61.570312 -78.164062 63.15625 -79.21875 C 64.75 -80.28125 66.597656 -80.8125 68.703125 -80.8125 C 71.773438 -80.8125 73.789062 -80.113281 74.75 -78.71875 C 75.71875 -77.332031 75.816406 -75.4375 75.046875 -73.03125 C 73.992188 -69.863281 73.054688 -67.125 72.234375 -64.8125 C 71.421875 -62.507812 70.773438 -60.445312 70.296875 -58.625 L 70.734375 -59.640625 C 69.765625 -56.753906 69.6875 -54.640625 70.5 -53.296875 C 71.320312 -51.953125 73.316406 -51.28125 76.484375 -51.28125 C 79.171875 -51.28125 81.785156 -52.023438 84.328125 -53.515625 C 86.878906 -55.003906 88.992188 -57.164062 90.671875 -60 C 92.359375 -62.832031 93.203125 -66.3125 93.203125 -70.4375 C 93.203125 -76.675781 91.015625 -81.140625 86.640625 -83.828125 C 82.273438 -86.523438 76.109375 -87.875 68.140625 -87.875 C 62.566406 -87.875 57.425781 -87.222656 52.71875 -85.921875 C 48.007812 -84.628906 44.210938 -82.585938 41.328125 -79.796875 C 38.453125 -77.015625 37.015625 -73.414062 37.015625 -69 C 37.015625 -67.082031 37.539062 -65.472656 38.59375 -64.171875 C 39.65625 -62.878906 40.957031 -62.234375 42.5 -62.234375 C 43.164062 -60.691406 43.210938 -58.835938 42.640625 -56.671875 C 42.066406 -54.515625 40.9375 -52.453125 39.25 -50.484375 C 37.570312 -48.515625 35.410156 -46.859375 32.765625 -45.515625 C 30.128906 -44.171875 27.082031 -43.5 23.625 -43.5 C 19.6875 -43.5 16.375 -44.4375 13.6875 -46.3125 C 11 -48.1875 8.984375 -50.660156 7.640625 -53.734375 C 6.296875 -56.804688 5.625 -60.070312 5.625 -63.53125 C 5.625 -69.476562 7.0625 -75.066406 9.9375 -80.296875 C 12.820312 -85.535156 16.953125 -90.171875 22.328125 -94.203125 C 27.703125 -98.234375 34.207031 -101.398438 41.84375 -103.703125 C 49.476562 -106.015625 58.050781 -107.171875 67.5625 -107.171875 Z M 67.5625 -107.171875 "/></g></g></g><g fill="#ff7a14" fill-opacity="1"><g transform="translate(135.621762, 157.557233)"><g><path d="M 27.078125 0 C 21.316406 0 16.585938 -1.296875 12.890625 -3.890625 C 9.191406 -6.484375 6.453125 -9.914062 4.671875 -14.1875 C 2.898438 -18.457031 2.035156 -23.160156 2.078125 -28.296875 C 2.128906 -33.441406 3.019531 -38.582031 4.75 -43.71875 C 6.476562 -48.851562 8.972656 -53.554688 12.234375 -57.828125 C 15.503906 -62.109375 19.46875 -65.539062 24.125 -68.125 C 28.78125 -70.71875 34.039062 -72.015625 39.90625 -72.015625 C 44.414062 -72.015625 48.085938 -71.175781 50.921875 -69.5 C 53.753906 -67.820312 55.84375 -65.585938 57.1875 -62.796875 C 58.53125 -60.015625 59.203125 -57.039062 59.203125 -53.875 C 59.203125 -50.414062 58.238281 -46.957031 56.3125 -43.5 C 54.394531 -40.039062 51.707031 -37.179688 48.25 -34.921875 C 44.789062 -32.671875 40.710938 -31.546875 36.015625 -31.546875 C 33.992188 -31.546875 32.019531 -31.6875 30.09375 -31.96875 C 28.175781 -32.257812 26.40625 -32.882812 24.78125 -33.84375 C 24.300781 -34.132812 23.769531 -34.160156 23.1875 -33.921875 C 22.613281 -33.679688 22.328125 -33.082031 22.328125 -32.125 C 22.328125 -29.625 23.789062 -27.722656 26.71875 -26.421875 C 29.644531 -25.128906 33.175781 -24.484375 37.3125 -24.484375 C 42.207031 -24.484375 47.269531 -25.734375 52.5 -28.234375 C 57.738281 -30.734375 61.988281 -34.476562 65.25 -39.46875 C 66.019531 -40.625 67.03125 -41.03125 68.28125 -40.6875 C 69.53125 -40.351562 70.5625 -39.707031 71.375 -38.75 C 72.1875 -37.789062 72.304688 -36.832031 71.734375 -35.875 C 65.398438 -24.15625 58.460938 -15.242188 50.921875 -9.140625 C 43.378906 -3.046875 35.429688 0 27.078125 0 Z M 32.265625 -42.34375 C 35.046875 -42.34375 37.226562 -43.226562 38.8125 -45 C 40.40625 -46.78125 41.203125 -48.585938 41.203125 -50.421875 C 41.203125 -52.046875 40.648438 -53.4375 39.546875 -54.59375 C 38.441406 -55.75 36.785156 -56.328125 34.578125 -56.328125 C 31.785156 -56.328125 29.570312 -55.460938 27.9375 -53.734375 C 26.3125 -52.003906 25.5 -50.175781 25.5 -48.25 C 25.5 -46.71875 26.050781 -45.347656 27.15625 -44.140625 C 28.257812 -42.941406 29.960938 -42.34375 32.265625 -42.34375 Z M 32.265625 -42.34375 "/></g></g></g><g fill="#ff7a14" fill-opacity="1"><g transform="translate(197.558201, 157.557233)"><g><path d="M 14.546875 0 C 9.171875 0 5.207031 -1.65625 2.65625 -4.96875 C 0.113281 -8.28125 -1.15625 -12.597656 -1.15625 -17.921875 C -1.15625 -23.253906 -0.0976562 -28.992188 2.015625 -35.140625 C 3.265625 -38.796875 4.65625 -42.734375 6.1875 -46.953125 C 7.726562 -51.179688 9.410156 -55.789062 11.234375 -60.78125 C 9.117188 -60.78125 7.507812 -61.332031 6.40625 -62.4375 C 5.300781 -63.539062 4.582031 -64.835938 4.25 -66.328125 C 3.914062 -67.816406 3.914062 -69.113281 4.25 -70.21875 C 4.582031 -71.320312 5.179688 -71.875 6.046875 -71.875 C 10.273438 -71.875 13.585938 -73.050781 15.984375 -75.40625 C 18.390625 -77.757812 20.070312 -80.234375 21.03125 -82.828125 C 22.757812 -87.054688 24.4375 -89.722656 26.0625 -90.828125 C 27.695312 -91.929688 29.429688 -92.484375 31.265625 -92.484375 C 33.953125 -92.484375 35.628906 -91.351562 36.296875 -89.09375 C 36.972656 -86.832031 36.207031 -83.445312 34 -78.9375 C 32.9375 -76.632812 32.359375 -74.878906 32.265625 -73.671875 C 32.171875 -72.472656 32.796875 -71.875 34.140625 -71.875 L 41.625 -71.875 C 42.582031 -71.875 43.207031 -71.203125 43.5 -69.859375 C 43.789062 -68.515625 43.765625 -66.976562 43.421875 -65.25 C 43.085938 -63.519531 42.460938 -61.984375 41.546875 -60.640625 C 40.640625 -59.296875 39.46875 -58.625 38.03125 -58.625 C 33.613281 -58.625 30.347656 -58.457031 28.234375 -58.125 C 26.117188 -57.789062 24.628906 -56.945312 23.765625 -55.59375 C 22.898438 -54.25 21.988281 -51.945312 21.03125 -48.6875 C 19.488281 -43.695312 19.703125 -39.710938 21.671875 -36.734375 C 23.640625 -33.753906 26.738281 -32.265625 30.96875 -32.265625 C 33.851562 -32.265625 36.421875 -32.910156 38.671875 -34.203125 C 40.929688 -35.503906 42.78125 -37.257812 44.21875 -39.46875 C 44.988281 -40.625 45.972656 -41.03125 47.171875 -40.6875 C 48.367188 -40.351562 49.375 -39.707031 50.1875 -38.75 C 51.007812 -37.789062 51.179688 -36.832031 50.703125 -35.875 C 49.835938 -34.238281 48.6875 -31.976562 47.25 -29.09375 C 45.8125 -26.21875 44.082031 -23.097656 42.0625 -19.734375 C 40.039062 -16.367188 37.6875 -13.195312 35 -10.21875 C 32.3125 -7.25 29.265625 -4.800781 25.859375 -2.875 C 22.453125 -0.957031 18.679688 0 14.546875 0 Z M 14.546875 0 "/></g></g></g><g fill="#ff7a14" fill-opacity="1"><g transform="translate(238.465062, 157.557233)"><g><path d="M 15.265625 0 C 10.367188 0 6.671875 -2.015625 4.171875 -6.046875 C 1.679688 -10.078125 0.4375 -15.3125 0.4375 -21.75 C 0.4375 -25.78125 0.9375 -30.078125 1.9375 -34.640625 C 2.945312 -39.203125 4.4375 -43.691406 6.40625 -48.109375 C 8.375 -52.523438 10.847656 -56.535156 13.828125 -60.140625 C 16.804688 -63.742188 20.265625 -66.625 24.203125 -68.78125 C 28.140625 -70.9375 32.601562 -72.015625 37.59375 -72.015625 C 40.476562 -72.015625 42.710938 -71.75 44.296875 -71.21875 C 45.878906 -70.695312 47.078125 -70.050781 47.890625 -69.28125 C 48.710938 -68.519531 49.410156 -67.875 49.984375 -67.34375 C 50.554688 -66.8125 51.320312 -66.546875 52.28125 -66.546875 C 53.914062 -66.546875 55.238281 -67 56.25 -67.90625 C 57.257812 -68.820312 58.390625 -69.734375 59.640625 -70.640625 C 60.890625 -71.554688 62.617188 -72.015625 64.828125 -72.015625 C 66.742188 -72.015625 68.0625 -71.535156 68.78125 -70.578125 C 69.5 -69.617188 69.859375 -68.320312 69.859375 -66.6875 C 69.859375 -64 69.113281 -61.332031 67.625 -58.6875 C 66.132812 -56.050781 64.578125 -52.625 62.953125 -48.40625 C 60.546875 -43.125 59.65625 -39.085938 60.28125 -36.296875 C 60.90625 -33.515625 62.800781 -32.125 65.96875 -32.125 C 68.46875 -32.125 70.628906 -32.769531 72.453125 -34.0625 C 74.273438 -35.363281 75.910156 -37.164062 77.359375 -39.46875 C 78.117188 -40.625 79.097656 -41.03125 80.296875 -40.6875 C 81.503906 -40.351562 82.515625 -39.707031 83.328125 -38.75 C 84.148438 -37.789062 84.316406 -36.832031 83.828125 -35.875 C 82.109375 -32.507812 80.265625 -28.785156 78.296875 -24.703125 C 76.328125 -20.617188 74.140625 -16.703125 71.734375 -12.953125 C 69.335938 -9.210938 66.601562 -6.117188 63.53125 -3.671875 C 60.457031 -1.222656 56.898438 0 52.859375 0 C 47.867188 0 44.34375 -2.015625 42.28125 -6.046875 C 40.21875 -10.078125 39.617188 -15.070312 40.484375 -21.03125 L 39.90625 -21.03125 C 37.019531 -15.175781 33.460938 -10.207031 29.234375 -6.125 C 25.015625 -2.039062 20.359375 0 15.265625 0 Z M 29.671875 -29.8125 C 32.171875 -29.8125 34.351562 -30.53125 36.21875 -31.96875 C 38.09375 -33.414062 39.554688 -35.171875 40.609375 -37.234375 C 41.671875 -39.296875 42.203125 -41.335938 42.203125 -43.359375 C 42.203125 -45.753906 41.53125 -47.625 40.1875 -48.96875 C 38.84375 -50.320312 37.019531 -51 34.71875 -51 C 32.21875 -51 30.054688 -50.320312 28.234375 -48.96875 C 26.410156 -47.625 24.992188 -45.921875 23.984375 -43.859375 C 22.972656 -41.796875 22.46875 -39.707031 22.46875 -37.59375 C 22.46875 -35.195312 23.113281 -33.300781 24.40625 -31.90625 C 25.707031 -30.507812 27.460938 -29.8125 29.671875 -29.8125 Z M 29.671875 -29.8125 "/></g></g></g><g fill="#ff7a14" fill-opacity="1"><g transform="translate(312.500705, 157.557233)"><g><path d="M 12.25 0 C 7.15625 0 3.597656 -1.414062 1.578125 -4.25 C -0.429688 -7.082031 -1.4375 -10.613281 -1.4375 -14.84375 C -1.4375 -18.488281 -0.976562 -22.472656 -0.0625 -26.796875 C 0.84375 -31.117188 2.015625 -35.34375 3.453125 -39.46875 C 8.347656 -53.488281 12.5 -65.25 15.90625 -74.75 C 19.320312 -84.257812 22.613281 -91.4375 25.78125 -96.28125 C 28.945312 -101.132812 32.453125 -103.5625 36.296875 -103.5625 C 39.273438 -103.5625 41.144531 -102.429688 41.90625 -100.171875 C 42.675781 -97.921875 41.957031 -94.539062 39.75 -90.03125 C 35.8125 -82.0625 32.425781 -74.691406 29.59375 -67.921875 C 26.769531 -61.148438 24.539062 -54.738281 22.90625 -48.6875 C 22.132812 -45.90625 21.582031 -43.238281 21.25 -40.6875 C 20.914062 -38.144531 21.226562 -36.082031 22.1875 -34.5 C 23.144531 -32.914062 25.0625 -32.125 27.9375 -32.125 C 30.4375 -32.125 32.625 -32.769531 34.5 -34.0625 C 36.375 -35.363281 38.078125 -37.164062 39.609375 -39.46875 C 40.378906 -40.625 41.390625 -41.03125 42.640625 -40.6875 C 43.890625 -40.351562 44.921875 -39.707031 45.734375 -38.75 C 46.546875 -37.789062 46.664062 -36.832031 46.09375 -35.875 C 45.132812 -34.332031 43.984375 -32.097656 42.640625 -29.171875 C 41.296875 -26.242188 39.6875 -23.125 37.8125 -19.8125 C 35.9375 -16.5 33.75 -13.328125 31.25 -10.296875 C 28.757812 -7.273438 25.953125 -4.800781 22.828125 -2.875 C 19.710938 -0.957031 16.1875 0 12.25 0 Z M 12.25 0 "/></g></g></g><path stroke-linecap="butt" transform="matrix(1.688051, 0, 0, 1.688051, 0.0000045, 151.026566)" fill="none" stroke-linejoin="miter" d="M 52.487477 12.524146 C 62.333797 12.524146 69.597627 14.412418 74.278968 18.188962 C 78.974193 21.96782 81.320648 27.32718 81.320648 34.27167 C 81.320648 36.884242 80.84858 39.529211 79.904444 42.208891 C 78.974193 44.877001 77.555675 47.334531 75.653519 49.583797 C 73.751362 51.835376 71.363254 53.633399 68.486879 54.980181 C 65.612818 56.313079 62.271317 56.979528 58.467005 56.979528 C 56.592617 56.979528 55.155587 56.764321 54.153599 56.333906 C 53.153926 55.903491 52.355576 55.493902 51.758548 55.105141 C 51.161521 54.702494 50.495072 54.501171 49.759202 54.501171 C 48.912256 54.501171 48.231923 54.896875 47.718202 55.688283 L 47.280845 56.542171 L 47.530763 55.938202 L 47.280845 56.542171 C 45.626293 60.862519 43.550582 64.770964 41.051399 68.272135 C 38.552215 71.770991 35.703609 74.527035 32.510208 76.54258 C 29.328377 78.569696 25.892 79.583254 22.196448 79.583254 C 18.891973 79.583254 16.198408 78.895978 14.113441 77.521427 C 12.044673 76.160761 10.545163 74.402076 9.614911 72.250002 C 8.670775 70.084043 8.198707 67.834778 8.198707 65.499892 C 8.198707 63.111784 8.670775 60.841692 9.614911 58.687303 C 10.545163 56.521345 11.864176 54.758032 13.571952 53.397365 C 15.282041 52.022814 17.274446 51.333225 19.551479 51.333225 C 20.398425 51.333225 20.821898 51.675706 20.821898 52.356039 C 20.821898 54.244311 21.516115 55.77159 22.906864 56.937875 C 24.309184 58.104161 26.003075 58.687303 27.988537 58.687303 C 30.321109 58.687303 32.926739 57.534902 35.8008 55.2301 C 38.677175 52.925297 41.106936 49.208919 43.092399 44.085593 C 43.842154 42.153354 44.598851 40.154007 45.36249 38.085239 C 46.126129 36.002586 46.885141 34.04952 47.634896 32.23067 C 48.204154 30.745045 48.953909 29.689834 49.884161 29.065038 C 50.828297 28.440242 51.925161 28.127844 53.174752 28.127844 C 54.995916 28.127844 56.189971 28.544375 56.759229 29.377436 C 57.328488 30.196613 57.384025 31.314303 56.925841 32.730507 C 56.301046 34.604895 55.745672 36.231678 55.259719 37.606229 C 54.773767 38.966895 54.389633 40.188718 54.111946 41.271698 L 54.361864 40.667728 C 53.792606 42.375504 53.750953 43.634352 54.236905 44.439644 C 54.725172 45.231052 55.905342 45.626756 57.779729 45.626756 C 59.37643 45.626756 60.924535 45.189399 62.424045 44.314685 C 63.939753 43.423772 65.189345 42.13947 66.175134 40.459463 C 67.174807 38.779456 67.674644 36.71763 67.674644 34.27167 C 67.674644 30.578432 66.376457 27.933463 63.780083 26.334449 C 61.19528 24.737748 57.543695 23.939398 52.820701 23.939398 C 49.53011 23.939398 46.487123 24.32816 43.696368 25.105684 C 40.905613 25.869323 38.656348 27.077262 36.946259 28.731814 C 35.252368 30.384051 34.405422 32.5153 34.405422 35.125558 C 34.405422 36.266389 34.71782 37.224409 35.342616 38.001933 C 35.967412 38.765572 36.731051 39.147392 37.633534 39.147392 C 38.03618 40.049875 38.063949 41.139796 37.71684 42.417157 C 37.383616 43.696831 36.717167 44.918654 35.717493 46.08494 C 34.71782 47.251225 33.433517 48.237014 31.864586 49.042307 C 30.307224 49.833715 28.509201 50.229419 26.468201 50.229419 C 24.13563 50.229419 22.16868 49.674045 20.571979 48.563297 C 18.975279 47.452548 17.781224 45.987749 16.989816 44.168899 C 16.198408 42.347735 15.802704 40.41781 15.802704 38.37681 C 15.802704 34.847871 16.656592 31.536453 18.364367 28.440242 C 20.072143 25.327833 22.518103 22.578731 25.697619 20.190623 C 28.877136 17.8002 32.732358 15.925813 37.258657 14.565146 C 41.787269 13.20448 46.864314 12.524146 52.487477 12.524146 Z M 52.487477 12.524146 " stroke="#ffffff" stroke-width="13.546661" stroke-opacity="1" stroke-miterlimit="4"/><path stroke-linecap="butt" transform="matrix(1.688051, 0, 0, 1.688051, 0.0000045, 151.026566)" fill="none" stroke-linejoin="miter" d="M 111.796801 35.208864 L 110.33663 35.208864 L 107.608355 21.898398 C 107.386206 21.051453 107.275131 20.287813 107.275131 19.60748 C 107.275131 18.577724 107.65695 17.668299 108.42059 16.876891 C 109.184229 16.071598 110.07977 15.668952 111.109526 15.668952 C 112.081431 15.668952 112.949203 16.071598 113.712842 16.876891 C 114.476481 17.668299 114.858301 18.577724 114.858301 19.60748 C 114.858301 19.885167 114.747226 20.648807 114.525077 21.898398 Z M 110.33663 57.645977 L 111.796801 57.645977 L 114.525077 70.958757 C 114.747226 71.819587 114.858301 72.590168 114.858301 73.270501 C 114.858301 74.297943 114.476481 75.207369 113.712842 76.001091 C 112.949203 76.792499 112.081431 77.188203 111.109526 77.188203 C 110.07977 77.188203 109.184229 76.792499 108.42059 76.001091 C 107.65695 75.207369 107.275131 74.297943 107.275131 73.270501 C 107.275131 72.97893 107.386206 72.208348 107.608355 70.958757 Z M 119.463278 39.043259 L 118.440464 38.022759 L 125.961155 26.584367 C 127.268598 24.598905 128.691744 23.606174 130.232907 23.606174 C 131.246465 23.606174 132.107295 23.960225 132.815397 24.668326 C 133.537383 25.376428 133.898376 26.2442 133.898376 27.271643 C 133.898376 28.81512 132.898703 30.238266 130.899356 31.543395 Z M 102.670154 53.813896 L 103.692968 54.834396 L 96.172277 66.270474 C 94.867148 68.25825 93.441688 69.250981 91.900525 69.250981 C 90.886967 69.250981 90.019195 68.89693 89.297209 68.188829 C 88.589107 67.478412 88.235056 66.61064 88.235056 65.583198 C 88.235056 64.05592 89.234729 62.632774 91.234076 61.31376 Z M 122.295686 47.167919 L 122.295686 45.710062 L 135.608465 42.979473 C 136.455411 42.743439 137.21905 42.625422 137.899384 42.625422 C 138.926826 42.625422 139.836251 43.014184 140.627659 43.794022 C 141.432951 44.557661 141.835597 45.453202 141.835597 46.480644 C 141.835597 47.438664 141.432951 48.306436 140.627659 49.08396 C 139.836251 49.847599 138.926826 50.229419 137.899384 50.229419 C 137.21905 50.229419 136.455411 50.118344 135.608465 49.896194 Z M 99.837746 45.710062 L 99.837746 47.167919 L 86.524966 49.896194 C 85.678021 50.118344 84.914381 50.229419 84.234048 50.229419 C 83.206606 50.229419 82.290239 49.847599 81.484946 49.08396 C 80.693538 48.306436 80.297834 47.438664 80.297834 46.480644 C 80.297834 45.453202 80.693538 44.557661 81.484946 43.794022 C 82.290239 43.014184 83.206606 42.625422 84.234048 42.625422 C 84.914381 42.625422 85.678021 42.743439 86.524966 42.979473 Z M 118.440464 54.834396 L 119.463278 53.813896 L 130.899356 61.31376 C 132.898703 62.632774 133.898376 64.05592 133.898376 65.583198 C 133.898376 66.61064 133.537383 67.478412 132.815397 68.188829 C 132.107295 68.89693 131.246465 69.250981 130.232907 69.250981 C 128.691744 69.250981 127.268598 68.25825 125.961155 66.270474 Z M 103.692968 38.022759 L 102.670154 39.043259 L 91.234076 31.543395 C 89.234729 30.238266 88.235056 28.81512 88.235056 27.271643 C 88.235056 26.2442 88.589107 25.376428 89.297209 24.668326 C 90.019195 23.960225 90.886967 23.606174 91.900525 23.606174 C 93.441688 23.606174 94.867148 24.598905 96.172277 26.584367 Z M 111.192832 38.293504 C 113.358791 38.293504 115.233179 39.091854 116.815995 40.688555 C 118.412695 42.271371 119.21336 44.20361 119.21336 46.480644 C 119.21336 48.70214 118.412695 50.611239 116.815995 52.210253 C 115.233179 53.793069 113.331022 54.584477 111.109526 54.584477 C 108.830178 54.584477 106.893311 53.793069 105.296611 52.210253 C 103.713794 50.611239 102.922386 48.70214 102.922386 46.480644 C 102.922386 44.20361 103.713794 42.271371 105.296611 40.688555 C 106.893311 39.091854 108.857947 38.293504 111.192832 38.293504 Z M 111.192832 38.293504 " stroke="#ffffff" stroke-width="13.546661" stroke-opacity="1" stroke-miterlimit="4"/><path stroke-linecap="butt" transform="matrix(1.688051, 0, 0, 1.688051, 0.0000045, 151.026566)" fill="none" stroke-linejoin="miter" d="M 184.830808 12.524146 C 194.679442 12.524146 201.943272 14.412418 206.622299 18.188962 C 211.317524 21.96782 213.66398 27.32718 213.66398 34.27167 C 213.66398 36.884242 213.191912 39.529211 212.247776 42.208891 C 211.317524 44.877001 209.90132 47.334531 207.99685 49.583797 C 206.094694 51.835376 203.706585 53.633399 200.83021 54.980181 C 197.956149 56.313079 194.616962 56.979528 190.810336 56.979528 C 188.935948 56.979528 187.498918 56.764321 186.499244 56.333906 C 185.499571 55.903491 184.698907 55.493902 184.10188 55.105141 C 183.504853 54.702494 182.838404 54.501171 182.102533 54.501171 C 181.255587 54.501171 180.575254 54.896875 180.061533 55.688283 L 179.624176 56.542171 L 179.874094 55.938202 L 179.624176 56.542171 C 177.971938 60.862519 175.893913 64.770964 173.39473 68.272135 C 170.895547 71.770991 168.04694 74.527035 164.853539 76.54258 C 161.674023 78.569696 158.235331 79.583254 154.542094 79.583254 C 151.235304 79.583254 148.54174 78.895978 146.459087 77.521427 C 144.388004 76.160761 142.888494 74.402076 141.958243 72.250002 C 141.014107 70.084043 140.542039 67.834778 140.542039 65.499892 C 140.542039 63.111784 141.014107 60.841692 141.958243 58.687303 C 142.888494 56.521345 144.207508 54.758032 145.917597 53.397365 C 147.625372 52.022814 149.617777 51.333225 151.894811 51.333225 C 152.741756 51.333225 153.167543 51.675706 153.167543 52.356039 C 153.167543 54.244311 153.861761 55.77159 155.250196 56.937875 C 156.652515 58.104161 158.346406 58.687303 160.331869 58.687303 C 162.666754 58.687303 165.27007 57.534902 168.144131 55.2301 C 171.020506 52.925297 173.450267 49.208919 175.43573 44.085593 C 176.185485 42.153354 176.942182 40.154007 177.708135 38.085239 C 178.471775 36.002586 179.228472 34.04952 179.978227 32.23067 C 180.547486 30.745045 181.297241 29.689834 182.227492 29.065038 C 183.171628 28.440242 184.268492 28.127844 185.520398 28.127844 C 187.339248 28.127844 188.533302 28.544375 189.102561 29.377436 C 189.671819 30.196613 189.727356 31.314303 189.269173 32.730507 C 188.644377 34.604895 188.089003 36.231678 187.60305 37.606229 C 187.117098 38.966895 186.735278 40.188718 186.457591 41.271698 L 186.70751 40.667728 C 186.138251 42.375504 186.096598 43.634352 186.582551 44.439644 C 187.068503 45.231052 188.248673 45.626756 190.12306 45.626756 C 191.719761 45.626756 193.27018 45.189399 194.76969 44.314685 C 196.283085 43.423772 197.532676 42.13947 198.518465 40.459463 C 199.518139 38.779456 200.017975 36.71763 200.017975 34.27167 C 200.017975 30.578432 198.719789 27.933463 196.123415 26.334449 C 193.540925 24.737748 189.887026 23.939398 185.166347 23.939398 C 181.873441 23.939398 178.832768 24.32816 176.039699 25.105684 C 173.248944 25.869323 170.999679 27.077262 169.291904 28.731814 C 167.595699 30.384051 166.748753 32.5153 166.748753 35.125558 C 166.748753 36.266389 167.061151 37.224409 167.685947 38.001933 C 168.310743 38.765572 169.076697 39.147392 169.979179 39.147392 C 170.381826 40.049875 170.409594 41.139796 170.062486 42.417157 C 169.729261 43.696831 169.062812 44.918654 168.060825 46.08494 C 167.061151 47.251225 165.776849 48.237014 164.207917 49.042307 C 162.65287 49.833715 160.852532 50.229419 158.811532 50.229419 C 156.478961 50.229419 154.514325 49.674045 152.917625 48.563297 C 151.31861 47.452548 150.124556 45.987749 149.333148 44.168899 C 148.54174 42.347735 148.146036 40.41781 148.146036 38.37681 C 148.146036 34.847871 148.999923 31.536453 150.707699 28.440242 C 152.415474 25.327833 154.861434 22.578731 158.040951 20.190623 C 161.222781 17.8002 165.075689 15.925813 169.604302 14.565146 C 174.130601 13.20448 179.207646 12.524146 184.830808 12.524146 Z M 184.830808 12.524146 " stroke="#ffffff" stroke-width="13.546661" stroke-opacity="1" stroke-miterlimit="4"/><g fill="#ff7a14" fill-opacity="1"><g transform="translate(21.047895, 279.318471)"><g><path d="M 67.5625 -107.171875 C 84.175781 -107.171875 96.441406 -103.976562 104.359375 -97.59375 C 112.285156 -91.207031 116.25 -82.15625 116.25 -70.4375 C 116.25 -66.019531 115.457031 -61.550781 113.875 -57.03125 C 112.289062 -52.519531 109.890625 -48.367188 106.671875 -44.578125 C 103.453125 -40.785156 99.414062 -37.757812 94.5625 -35.5 C 89.71875 -33.25 84.078125 -32.125 77.640625 -32.125 C 74.472656 -32.125 72.046875 -32.484375 70.359375 -33.203125 C 68.679688 -33.921875 67.335938 -34.613281 66.328125 -35.28125 C 65.328125 -35.957031 64.203125 -36.296875 62.953125 -36.296875 C 61.503906 -36.296875 60.347656 -35.625 59.484375 -34.28125 L 58.765625 -32.84375 L 59.203125 -33.84375 L 58.765625 -32.84375 C 55.984375 -25.539062 52.476562 -18.9375 48.25 -13.03125 C 44.03125 -7.125 39.226562 -2.46875 33.84375 0.9375 C 28.46875 4.34375 22.660156 6.046875 16.421875 6.046875 C 10.847656 6.046875 6.304688 4.894531 2.796875 2.59375 C -0.703125 0.289062 -3.242188 -2.679688 -4.828125 -6.328125 C -6.410156 -9.984375 -7.203125 -13.78125 -7.203125 -17.71875 C -7.203125 -21.75 -6.410156 -25.585938 -4.828125 -29.234375 C -3.242188 -32.890625 -1.015625 -35.867188 1.859375 -38.171875 C 4.742188 -40.472656 8.109375 -41.625 11.953125 -41.625 C 13.390625 -41.625 14.109375 -41.050781 14.109375 -39.90625 C 14.109375 -36.726562 15.285156 -34.15625 17.640625 -32.1875 C 19.992188 -30.21875 22.851562 -29.234375 26.21875 -29.234375 C 30.15625 -29.234375 34.546875 -31.175781 39.390625 -35.0625 C 44.242188 -38.957031 48.351562 -45.226562 51.71875 -53.875 C 52.957031 -57.132812 54.222656 -60.515625 55.515625 -64.015625 C 56.816406 -67.523438 58.09375 -70.816406 59.34375 -73.890625 C 60.300781 -76.390625 61.570312 -78.164062 63.15625 -79.21875 C 64.75 -80.28125 66.597656 -80.8125 68.703125 -80.8125 C 71.773438 -80.8125 73.789062 -80.113281 74.75 -78.71875 C 75.71875 -77.332031 75.816406 -75.4375 75.046875 -73.03125 C 73.992188 -69.863281 73.054688 -67.125 72.234375 -64.8125 C 71.421875 -62.507812 70.773438 -60.445312 70.296875 -58.625 L 70.734375 -59.640625 C 69.765625 -56.753906 69.6875 -54.640625 70.5 -53.296875 C 71.320312 -51.953125 73.316406 -51.28125 76.484375 -51.28125 C 79.171875 -51.28125 81.785156 -52.023438 84.328125 -53.515625 C 86.878906 -55.003906 88.992188 -57.164062 90.671875 -60 C 92.359375 -62.832031 93.203125 -66.3125 93.203125 -70.4375 C 93.203125 -76.675781 91.015625 -81.140625 86.640625 -83.828125 C 82.273438 -86.523438 76.109375 -87.875 68.140625 -87.875 C 62.566406 -87.875 57.425781 -87.222656 52.71875 -85.921875 C 48.007812 -84.628906 44.210938 -82.585938 41.328125 -79.796875 C 38.453125 -77.015625 37.015625 -73.414062 37.015625 -69 C 37.015625 -67.082031 37.539062 -65.472656 38.59375 -64.171875 C 39.65625 -62.878906 40.957031 -62.234375 42.5 -62.234375 C 43.164062 -60.691406 43.210938 -58.835938 42.640625 -56.671875 C 42.066406 -54.515625 40.9375 -52.453125 39.25 -50.484375 C 37.570312 -48.515625 35.410156 -46.859375 32.765625 -45.515625 C 30.128906 -44.171875 27.082031 -43.5 23.625 -43.5 C 19.6875 -43.5 16.375 -44.4375 13.6875 -46.3125 C 11 -48.1875 8.984375 -50.660156 7.640625 -53.734375 C 6.296875 -56.804688 5.625 -60.070312 5.625 -63.53125 C 5.625 -69.476562 7.0625 -75.066406 9.9375 -80.296875 C 12.820312 -85.535156 16.953125 -90.171875 22.328125 -94.203125 C 27.703125 -98.234375 34.207031 -101.398438 41.84375 -103.703125 C 49.476562 -106.015625 58.050781 -107.171875 67.5625 -107.171875 Z M 67.5625 -107.171875 "/></g></g></g><g fill="#ff7a14" fill-opacity="1"><g transform="translate(130.516956, 279.318471)"><g><path d="M 58.1875 -68.859375 L 55.75 -68.859375 L 51.140625 -91.328125 C 50.753906 -92.765625 50.5625 -94.0625 50.5625 -95.21875 C 50.5625 -96.945312 51.207031 -98.484375 52.5 -99.828125 C 53.800781 -101.171875 55.316406 -101.84375 57.046875 -101.84375 C 58.671875 -101.84375 60.128906 -101.171875 61.421875 -99.828125 C 62.722656 -98.484375 63.375 -96.945312 63.375 -95.21875 C 63.375 -94.738281 63.179688 -93.441406 62.796875 -91.328125 Z M 55.75 -30.96875 L 58.1875 -30.96875 L 62.796875 -8.5 C 63.179688 -7.0625 63.375 -5.765625 63.375 -4.609375 C 63.375 -2.878906 62.722656 -1.34375 61.421875 0 C 60.128906 1.34375 58.671875 2.015625 57.046875 2.015625 C 55.316406 2.015625 53.800781 1.34375 52.5 0 C 51.207031 -1.34375 50.5625 -2.878906 50.5625 -4.609375 C 50.5625 -5.085938 50.753906 -6.382812 51.140625 -8.5 Z M 71.15625 -62.375 L 69.4375 -64.09375 L 82.109375 -83.40625 C 84.316406 -86.757812 86.71875 -88.4375 89.3125 -88.4375 C 91.039062 -88.4375 92.503906 -87.835938 93.703125 -86.640625 C 94.898438 -85.441406 95.5 -83.976562 95.5 -82.25 C 95.5 -79.65625 93.820312 -77.253906 90.46875 -75.046875 Z M 42.78125 -37.453125 L 44.515625 -35.71875 L 31.828125 -16.421875 C 29.617188 -13.054688 27.21875 -11.375 24.625 -11.375 C 22.90625 -11.375 21.441406 -11.972656 20.234375 -13.171875 C 19.035156 -14.378906 18.4375 -15.847656 18.4375 -17.578125 C 18.4375 -20.171875 20.117188 -22.570312 23.484375 -24.78125 Z M 75.90625 -48.6875 L 75.90625 -51.140625 L 98.390625 -55.75 C 99.828125 -56.132812 101.117188 -56.328125 102.265625 -56.328125 C 103.992188 -56.328125 105.53125 -55.675781 106.875 -54.375 C 108.226562 -53.082031 108.90625 -51.570312 108.90625 -49.84375 C 108.90625 -48.207031 108.226562 -46.738281 106.875 -45.4375 C 105.53125 -44.144531 103.992188 -43.5 102.265625 -43.5 C 101.117188 -43.5 99.828125 -43.691406 98.390625 -44.078125 Z M 38.03125 -51.140625 L 38.03125 -48.6875 L 15.5625 -44.078125 C 14.113281 -43.691406 12.816406 -43.5 11.671875 -43.5 C 9.941406 -43.5 8.40625 -44.144531 7.0625 -45.4375 C 5.71875 -46.738281 5.046875 -48.207031 5.046875 -49.84375 C 5.046875 -51.570312 5.71875 -53.082031 7.0625 -54.375 C 8.40625 -55.675781 9.941406 -56.328125 11.671875 -56.328125 C 12.816406 -56.328125 14.113281 -56.132812 15.5625 -55.75 Z M 69.4375 -35.71875 L 71.15625 -37.453125 L 90.46875 -24.78125 C 93.820312 -22.570312 95.5 -20.171875 95.5 -17.578125 C 95.5 -15.847656 94.898438 -14.378906 93.703125 -13.171875 C 92.503906 -11.972656 91.039062 -11.375 89.3125 -11.375 C 86.71875 -11.375 84.316406 -13.054688 82.109375 -16.421875 Z M 44.515625 -64.09375 L 42.78125 -62.375 L 23.484375 -75.046875 C 20.117188 -77.253906 18.4375 -79.65625 18.4375 -82.25 C 18.4375 -83.976562 19.035156 -85.441406 20.234375 -86.640625 C 21.441406 -87.835938 22.90625 -88.4375 24.625 -88.4375 C 27.21875 -88.4375 29.617188 -86.757812 31.828125 -83.40625 Z M 57.1875 -63.671875 C 60.832031 -63.671875 64 -62.328125 66.6875 -59.640625 C 69.382812 -56.953125 70.734375 -53.6875 70.734375 -49.84375 C 70.734375 -46.09375 69.382812 -42.875 66.6875 -40.1875 C 64 -37.5 60.785156 -36.15625 57.046875 -36.15625 C 53.203125 -36.15625 49.9375 -37.5 47.25 -40.1875 C 44.5625 -42.875 43.21875 -46.09375 43.21875 -49.84375 C 43.21875 -53.6875 44.5625 -56.953125 47.25 -59.640625 C 49.9375 -62.328125 53.25 -63.671875 57.1875 -63.671875 Z M 57.1875 -63.671875 "/></g></g></g><g fill="#ff7a14" fill-opacity="1"><g transform="translate(244.451177, 279.318471)"><g><path d="M 67.5625 -107.171875 C 84.175781 -107.171875 96.441406 -103.976562 104.359375 -97.59375 C 112.285156 -91.207031 116.25 -82.15625 116.25 -70.4375 C 116.25 -66.019531 115.457031 -61.550781 113.875 -57.03125 C 112.289062 -52.519531 109.890625 -48.367188 106.671875 -44.578125 C 103.453125 -40.785156 99.414062 -37.757812 94.5625 -35.5 C 89.71875 -33.25 84.078125 -32.125 77.640625 -32.125 C 74.472656 -32.125 72.046875 -32.484375 70.359375 -33.203125 C 68.679688 -33.921875 67.335938 -34.613281 66.328125 -35.28125 C 65.328125 -35.957031 64.203125 -36.296875 62.953125 -36.296875 C 61.503906 -36.296875 60.347656 -35.625 59.484375 -34.28125 L 58.765625 -32.84375 L 59.203125 -33.84375 L 58.765625 -32.84375 C 55.984375 -25.539062 52.476562 -18.9375 48.25 -13.03125 C 44.03125 -7.125 39.226562 -2.46875 33.84375 0.9375 C 28.46875 4.34375 22.660156 6.046875 16.421875 6.046875 C 10.847656 6.046875 6.304688 4.894531 2.796875 2.59375 C -0.703125 0.289062 -3.242188 -2.679688 -4.828125 -6.328125 C -6.410156 -9.984375 -7.203125 -13.78125 -7.203125 -17.71875 C -7.203125 -21.75 -6.410156 -25.585938 -4.828125 -29.234375 C -3.242188 -32.890625 -1.015625 -35.867188 1.859375 -38.171875 C 4.742188 -40.472656 8.109375 -41.625 11.953125 -41.625 C 13.390625 -41.625 14.109375 -41.050781 14.109375 -39.90625 C 14.109375 -36.726562 15.285156 -34.15625 17.640625 -32.1875 C 19.992188 -30.21875 22.851562 -29.234375 26.21875 -29.234375 C 30.15625 -29.234375 34.546875 -31.175781 39.390625 -35.0625 C 44.242188 -38.957031 48.351562 -45.226562 51.71875 -53.875 C 52.957031 -57.132812 54.222656 -60.515625 55.515625 -64.015625 C 56.816406 -67.523438 58.09375 -70.816406 59.34375 -73.890625 C 60.300781 -76.390625 61.570312 -78.164062 63.15625 -79.21875 C 64.75 -80.28125 66.597656 -80.8125 68.703125 -80.8125 C 71.773438 -80.8125 73.789062 -80.113281 74.75 -78.71875 C 75.71875 -77.332031 75.816406 -75.4375 75.046875 -73.03125 C 73.992188 -69.863281 73.054688 -67.125 72.234375 -64.8125 C 71.421875 -62.507812 70.773438 -60.445312 70.296875 -58.625 L 70.734375 -59.640625 C 69.765625 -56.753906 69.6875 -54.640625 70.5 -53.296875 C 71.320312 -51.953125 73.316406 -51.28125 76.484375 -51.28125 C 79.171875 -51.28125 81.785156 -52.023438 84.328125 -53.515625 C 86.878906 -55.003906 88.992188 -57.164062 90.671875 -60 C 92.359375 -62.832031 93.203125 -66.3125 93.203125 -70.4375 C 93.203125 -76.675781 91.015625 -81.140625 86.640625 -83.828125 C 82.273438 -86.523438 76.109375 -87.875 68.140625 -87.875 C 62.566406 -87.875 57.425781 -87.222656 52.71875 -85.921875 C 48.007812 -84.628906 44.210938 -82.585938 41.328125 -79.796875 C 38.453125 -77.015625 37.015625 -73.414062 37.015625 -69 C 37.015625 -67.082031 37.539062 -65.472656 38.59375 -64.171875 C 39.65625 -62.878906 40.957031 -62.234375 42.5 -62.234375 C 43.164062 -60.691406 43.210938 -58.835938 42.640625 -56.671875 C 42.066406 -54.515625 40.9375 -52.453125 39.25 -50.484375 C 37.570312 -48.515625 35.410156 -46.859375 32.765625 -45.515625 C 30.128906 -44.171875 27.082031 -43.5 23.625 -43.5 C 19.6875 -43.5 16.375 -44.4375 13.6875 -46.3125 C 11 -48.1875 8.984375 -50.660156 7.640625 -53.734375 C 6.296875 -56.804688 5.625 -60.070312 5.625 -63.53125 C 5.625 -69.476562 7.0625 -75.066406 9.9375 -80.296875 C 12.820312 -85.535156 16.953125 -90.171875 22.328125 -94.203125 C 27.703125 -98.234375 34.207031 -101.398438 41.84375 -103.703125 C 49.476562 -106.015625 58.050781 -107.171875 67.5625 -107.171875 Z M 67.5625 -107.171875 "/></g></g></g></svg>